<?xml version="1.0" encoding="UTF-8"?>
<svg width="291px" height="88px" viewBox="0 0 291 88" version="1.1" xmlns="http://www.w3.org/2000/svg" xmlns:xlink="http://www.w3.org/1999/xlink">
    <!-- Generator: Sketch 43.2 (39069) - http://www.bohemiancoding.com/sketch -->
    <title>amazon</title>
    <desc>Created with Sketch.</desc>
    <defs></defs>
    <g id="black" stroke="none" stroke-width="1" fill="none" fill-rule="evenodd">
        <g id="Artboard" transform="translate(-1421.000000, -113.000000)" fill="#222222">
            <g id="amazon" transform="translate(1421.000000, 113.000000)">
                <path d="M180.388387,68.8238991 C163.53632,81.2452079 139.110277,87.8724251 118.07991,87.8724251 C88.5919411,87.8724251 62.0452026,76.9659182 41.9615687,58.8262713 C40.3836622,57.3998334 41.7974609,55.455856 43.6909584,56.5666981 C65.365114,69.1773548 92.1643339,76.7639455 119.847174,76.7639455 C138.516984,76.7639455 159.055053,72.9012162 177.939471,64.8854402 C180.792333,63.6735997 183.17813,66.7536834 180.388387,68.8238991" id="path8"></path>
                <path d="M187.39431,60.8081231 C185.248345,58.0562504 173.155252,59.5079283 167.727246,60.1517157 C166.073591,60.3536883 165.821133,58.9146352 167.310671,57.8795177 C176.942233,51.1008223 192.746577,53.0574293 194.589575,55.3296176 C196.432564,57.6144356 194.109891,73.4566493 185.058998,81.0179809 C183.670439,82.1793222 182.344994,81.5607892 182.963542,80.0207426 C184.995883,74.9461872 189.55289,63.5726206 187.39431,60.8081231" id="path10"></path>
                <path d="M168.105947,10.0246897 L168.105947,3.43534205 C168.105947,2.43810375 168.863343,1.76907156 169.772217,1.76907156 L199.272801,1.76907156 C200.219554,1.76907156 200.97695,2.45072854 200.97695,3.43534205 L200.97695,9.07794576 C200.964335,10.0246897 200.16906,11.2617702 198.755247,13.2183772 L183.468466,35.0440208 C189.148944,34.9051721 195.144999,35.7509225 200.295293,38.6542783 C201.456635,39.3106857 201.772216,40.2700544 201.86058,41.216808 L201.86058,48.2479705 C201.86058,49.2073392 200.800223,50.3308014 199.689376,49.7501379 C190.613237,44.991159 178.558014,44.473605 168.522512,49.8006323 C167.500029,50.3560558 166.427051,49.2452088 166.427051,48.28584 L166.427051,41.6081284 C166.427051,40.535151 166.439666,38.7047678 167.512644,37.0763669 L185.223101,11.6783402 L169.810087,11.6783402 C168.863343,11.6783402 168.105947,11.0093128 168.105947,10.0246897" id="path12"></path>
                <path d="M60.4925312,51.1386918 L51.5173865,51.1386918 C50.6590113,51.0755823 49.9773495,50.4317949 49.9142304,49.6112748 L49.9142304,3.54896037 C49.9142304,2.6274612 50.6842513,1.89530504 51.64362,1.89530504 L60.0128468,1.89530504 C60.8838613,1.93315053 61.5781334,2.6022068 61.6412574,3.43534205 L61.6412574,9.45665104 L61.8053605,9.45665104 C63.9891849,3.63731467 68.091742,0.923311516 73.620742,0.923311516 C79.2380959,0.923311516 82.7473648,3.63731467 85.2720201,9.45665104 C87.4432245,3.63731467 92.3789217,0.923311516 97.6680793,0.923311516 C101.429815,0.923311516 105.545002,2.47597331 108.057032,5.95999737 C110.897269,9.83534188 110.316596,15.4653208 110.316596,20.4010276 L110.303976,49.4724262 C110.303976,50.3939253 109.533955,51.1386918 108.574586,51.1386918 L99.6120567,51.1386918 C98.715812,51.0755823 97.9962854,50.3560558 97.9962854,49.4724262 L97.9962854,25.059013 C97.9962854,23.1150307 98.1730036,18.2676927 97.7438184,16.4246895 C97.0747863,13.3319955 95.0676849,12.4609811 92.4672856,12.4609811 C90.2960811,12.4609811 88.0238928,13.912659 87.1023936,16.2353465 C86.1808945,18.5580292 86.2692584,22.4459889 86.2692584,25.059013 L86.2692584,49.4724262 C86.2692584,50.3939253 85.4992375,51.1386918 84.5398687,51.1386918 L75.577349,51.1386918 C74.6684746,51.0755823 73.9615681,50.3560558 73.9615681,49.4724262 L73.9489481,25.059013 C73.9489481,19.9213432 74.7946985,12.3599972 68.4199529,12.3599972 C61.9694539,12.3599972 62.2219209,19.7319857 62.2219209,25.059013 L62.2219209,49.4724262 C62.2219209,50.3939253 61.4519,51.1386918 60.4925312,51.1386918" id="path14"></path>
                <path d="M226.374977,0.923311516 C239.692531,0.923311516 246.900416,12.3599972 246.900416,26.9020113 C246.900416,40.9517114 238.935125,52.0980606 226.374977,52.0980606 C213.297261,52.0980606 206.17773,40.6613749 206.17773,26.4097021 C206.17773,12.0696607 213.385625,0.923311516 226.374977,0.923311516 M226.450711,10.3276559 C219.836124,10.3276559 219.419549,19.3406653 219.419549,24.9580291 C219.419549,30.588008 219.331185,42.6053619 226.374977,42.6053619 C233.330401,42.6053619 233.658607,32.9106955 233.658607,27.0029904 C233.658607,23.1150307 233.494504,18.4696653 232.320533,14.7836638 C231.31067,11.5773611 229.303578,10.3276559 226.450711,10.3276559" id="path16"></path>
                <path d="M264.169058,51.1386918 L255.231783,51.1386918 C254.335524,51.0755823 253.615997,50.3560558 253.615997,49.4724262 L253.603382,3.39747248 C253.679121,2.55171244 254.423898,1.89530504 255.332772,1.89530504 L263.651514,1.89530504 C264.43415,1.93315053 265.077937,2.46335333 265.25467,3.18287989 L265.25467,10.2266623 L265.418764,10.2266623 C267.930804,3.92765121 271.452688,0.923311516 277.650715,0.923311516 C281.677538,0.923311516 285.603381,2.37498941 288.128037,6.35131782 C290.475964,10.0373145 290.475964,16.2353465 290.475964,20.6913545 L290.475964,49.6870236 C290.37498,50.4949044 289.630204,51.1386918 288.746584,51.1386918 L279.746185,51.1386918 C278.925665,51.0755823 278.244008,50.4696645 278.155654,49.6870236 L278.155654,24.6676925 C278.155654,19.6310067 278.736322,12.2590085 272.53829,12.2590085 C270.35447,12.2590085 268.347364,13.723316 267.350126,15.9450052 C266.087805,18.7600018 265.923702,21.5623689 265.923702,24.6676925 L265.923702,49.4724262 C265.911087,50.3939253 265.128437,51.1386918 264.169068,51.1386918" id="path18"></path>
                <path d="M144.588783,29.1363301 C144.588783,32.6329741 144.677147,35.5489499 142.909888,38.6542783 C141.483459,41.1789384 139.211271,42.7316002 136.69924,42.7316002 C133.253086,42.7316002 131.233365,40.1059514 131.233365,36.2306069 C131.233365,28.5809066 138.087799,27.1923478 144.588783,27.1923478 L144.588783,29.1363301 M153.639672,51.0124583 C153.046383,51.5426371 152.187994,51.5805066 151.518961,51.2270606 C148.539867,48.7528996 147.997068,47.604183 146.368667,45.2436308 C141.44559,50.2676918 137.948936,51.7698545 131.574186,51.7698545 C124.012845,51.7698545 118.143024,47.1118691 118.143024,37.7832783 C118.143024,30.4996441 122.081492,25.5386973 127.711471,23.1150307 C132.584054,20.9690662 139.387989,20.5903754 144.588783,19.9970823 L144.588783,18.835741 C144.588783,16.7024013 144.752886,14.177746 143.490561,12.3347572 C142.404958,10.6811019 140.309488,9.99944493 138.453875,9.99944493 C135.03296,9.99944493 131.990761,11.7540793 131.24598,15.3895817 C131.094501,16.197477 130.501213,16.9927426 129.680693,17.0306122 L120.983261,16.0964834 C120.251109,15.93239 119.430599,15.3390873 119.645196,14.2156252 C121.639672,3.66256907 131.18287,0.481496714 139.716195,0.481496714 C144.083854,0.481496714 149.789572,1.64283807 153.235726,4.95013428 C157.603375,9.0274514 157.18681,14.4680825 157.18681,20.3884028 L157.18681,34.3749886 C157.18681,38.578544 158.92882,40.4215327 160.569845,42.6937307 C161.137898,43.5016115 161.264132,44.473605 160.531952,45.0795229 C158.701578,46.6069447 155.444771,49.4471814 153.652267,51.0377127 L153.639652,51.0124343" id="path28"></path>
                <path d="M26.9272551,29.1363301 C26.9272551,32.6329741 27.0156094,35.5489499 25.2483593,38.6542783 C23.8219214,41.1789384 21.5623578,42.7316002 19.0377025,42.7316002 C15.591548,42.7316002 13.5844514,40.1059514 13.5844514,36.2306069 C13.5844514,28.5809066 20.4388861,27.1923478 26.9272551,27.1923478 L26.9272551,29.1363301 M35.9781389,51.0124583 C35.3848459,51.5426371 34.5264562,51.5805066 33.857424,51.2270606 C30.8783387,48.7528996 30.3481552,47.604183 28.7071295,45.2436308 C23.7840518,50.2676918 20.3000374,51.7698545 13.9126527,51.7698545 C6.36393154,51.7698545 0.481495269,47.1118691 0.481495269,37.7832783 C0.481495269,30.4996441 4.4325789,25.5386973 10.049933,23.1150307 C14.9225158,20.9690662 21.7264609,20.5903754 26.9272551,19.9970823 L26.9272551,18.835741 C26.9272551,16.7024013 27.0913582,14.177746 25.8416529,12.3347572 C24.7434206,10.6811019 22.6479649,9.99944493 20.8049617,9.99944493 C17.3840616,9.99944493 14.3292228,11.7540793 13.5844514,15.3895817 C13.4329684,16.197477 12.8396753,16.9927426 12.0317897,17.0306122 L3.32173191,16.0964834 C2.58958056,15.93239 1.78169009,15.3390873 1.98366271,14.2156252 C3.9907641,3.66256907 13.5213323,0.481496714 22.0546718,0.481496714 C26.4223163,0.481496714 32.1280344,1.64283807 35.5741889,4.95013428 C39.9418474,9.0274514 39.5252725,14.4680825 39.5252725,20.3884028 L39.5252725,34.3749886 C39.5252725,38.578544 41.2672918,40.4215327 42.9083175,42.6937307 C43.4889858,43.5016115 43.6152192,44.473605 42.8830679,45.0795229 C41.0526944,46.6069447 37.7958925,49.4471814 36.0033789,51.0377127 L35.9781389,51.0124343" id="path30"></path>
            </g>
        </g>
    </g>
</svg>