<?xml version="1.0" encoding="UTF-8"?>
<svg width="245px" height="86px" viewBox="0 0 245 86" version="1.1" xmlns="http://www.w3.org/2000/svg" xmlns:xlink="http://www.w3.org/1999/xlink">
    <!-- Generator: Sketch 50.2 (55047) - http://www.bohemiancoding.com/sketch -->
    <title>hbx</title>
    <desc>Created with Sketch.</desc>
    <defs></defs>
    <g id="black" stroke="none" stroke-width="1" fill="none" fill-rule="evenodd">
        <g id="Artboard" transform="translate(-3999.000000, -93.000000)" fill="#222222" fill-rule="nonzero">
            <g id="hbx" transform="translate(3999.000000, 93.000000)">
                <polygon id="Shape" points="127.847423 69.0659794 127.847423 46.9010309 147.707216 46.9010309 147.707216 69.0659794 157.548454 69.0659794 157.548454 17.3773196 147.707216 17.3773196 147.707216 38.0350515 127.847423 38.0350515 127.847423 17.3773196 117.917526 17.3773196 117.917526 69.0659794"></polygon>
                <path d="M165.616495,69.0659794 L184.678351,69.0659794 C197.88866,69.0659794 203.474227,63.4804124 203.474227,55.4123711 C203.474227,47.5216495 201.169072,44.4185567 194.430928,41.7587629 C200.105155,39.542268 202.321649,35.3752577 202.321649,29.9670103 C201.789691,20.7463918 195.051546,17.2886598 184.76701,17.2886598 L165.616495,17.2886598 L165.616495,69.0659794 Z M175.546392,46.014433 L185.387629,46.014433 C191.150515,46.014433 193.63299,48.585567 193.63299,53.5505155 C193.63299,58.5154639 191.150515,61.0865979 185.387629,61.0865979 L175.546392,61.0865979 L175.546392,46.014433 Z M175.546392,25.4453608 L185.387629,25.4453608 C190.086598,25.4453608 192.480412,28.1938144 192.480412,31.7402062 C192.480412,35.2865979 190.086598,38.0350515 185.387629,38.0350515 L175.546392,38.0350515 L175.546392,25.4453608 Z" id="Shape"></path>
                <polygon id="Shape" points="220.142268 42.556701 206.22268 69.0659794 216.950515 69.0659794 225.550515 51.5113402 234.150515 69.0659794 244.878351 69.0659794 230.870103 42.556701 243.991753 17.3773196 233.263918 17.3773196 225.550515 33.3360825 217.837113 17.3773196 207.109278 17.3773196"></polygon>
                <path d="M91.8515464,78.1092784 C85.4680412,78.1092784 81.2123711,72.7896907 77.7546392,68.0020619 L59.0474227,39.6309278 L42.4680412,59.756701 L50.8907216,73.0556701 C52.6639175,75.5381443 51.0680412,78.0206186 48.142268,78.0206186 C47.3443299,78.0206186 46.5463918,78.7298969 46.5463918,79.5278351 L46.5463918,85.3793814 L89.3690722,85.3793814 L95.2206186,78.1092784 L91.8515464,78.1092784 Z" id="Shape"></path>
                <path d="M31.7402062,78.1092784 L29.0804124,78.1092784 C24.0268041,78.1092784 23.228866,73.4103093 26.9525773,69.4206186 L83.7835052,0.709278351 L55.4123711,0.709278351 L55.4123711,3.81237113 C55.4123711,4.61030928 56.1216495,5.14226804 56.8309278,5.14226804 L57.8948454,5.14226804 C62.9484536,5.14226804 63.7463918,10.4618557 60.0226804,14.4515464 L50.2701031,26.1546392 L40.1628866,10.7278351 C38.3896907,8.24536082 39.2762887,5.14226804 42.2020619,5.14226804 C43,5.14226804 43.6206186,4.61030928 43.6206186,3.81237113 L43.6206186,0.709278351 L4.61030928,0.709278351 L0.797938144,5.31958763 C7.89072165,5.31958763 12.4123711,12.7670103 14.7175258,15.8701031 L33.7793814,46.1030928 L1.24123711,85.3793814 L33.1587629,85.3793814 L33.1587629,79.5278351 C33.2474227,78.7298969 32.5381443,78.1092784 31.7402062,78.1092784 Z" id="Shape"></path>
            </g>
        </g>
    </g>
</svg>