<?xml version="1.0" encoding="UTF-8"?>
<svg width="335px" height="60px" viewBox="0 0 335 60" version="1.1" xmlns="http://www.w3.org/2000/svg" xmlns:xlink="http://www.w3.org/1999/xlink">
    <!-- Generator: Sketch 43.2 (39069) - http://www.bohemiancoding.com/sketch -->
    <title>joeblau</title>
    <desc>Created with Sketch.</desc>
    <defs></defs>
    <g id="black" stroke="none" stroke-width="1" fill="none" fill-rule="evenodd">
        <g id="Artboard" transform="translate(-3405.000000, -102.000000)" fill="#222222">
            <g id="joeblau" transform="translate(3405.000000, 102.000000)">
                <path d="M4.37993468,2.32496533 L4.37993468,6.91489688 L24.1796394,6.91489688 L24.1796394,40.4843963 C24.1796394,51.9142258 20.7596904,54.7041842 0.869987026,53.8941963 L0.869987026,59.1141185 C23.0096569,59.6541104 29.8495549,53.6242003 29.8495549,40.5743949 L29.8495549,2.32496533 L4.37993468,2.32496533 Z M65.9390167,59.4741131 C53.6991992,59.4741131 46.4093079,49.3042648 46.4093079,31.2145345 C46.4093079,11.7748244 54.6891845,0.974985461 67.6489912,0.974985461 C79.8888087,0.974985461 86.9987026,11.1448338 87.0887013,29.234564 C87.1787,48.5842755 78.8988234,59.4741131 65.9390167,59.4741131 Z M66.5690073,5.74491433 C57.2091469,5.74491433 52.0792234,14.2947868 52.0792234,30.044552 C52.0792234,46.0643131 57.2091469,54.7041842 66.9290019,54.7041842 C76.1988637,54.7041842 81.4187859,46.1543117 81.4187859,30.4045466 C81.4187859,14.3847855 76.1988637,5.74491433 66.5690073,5.74491433 Z M134.967987,53.2642057 L107.068403,53.2642057 L107.068403,32.0245224 L131.098045,32.0245224 L131.098045,27.7045869 L107.068403,27.7045869 L107.068403,7.18489286 L134.607993,7.18489286 L134.607993,2.32496533 L101.398488,2.32496533 L101.398488,58.1241332 L134.427995,58.1241332 L134.967987,53.2642057 Z M186.987212,41.1143869 C186.987212,56.3241601 170.33746,60.9140916 147.657798,58.1241332 L147.657798,2.32496533 C170.517457,-0.104998434 185.277237,2.41496399 185.277237,15.554768 C185.277237,21.1346848 182.39728,25.3646218 177.627351,28.2445788 C184.017256,30.5845439 186.987212,34.6344835 186.987212,41.1143869 Z M160.617605,12.134819 L160.617605,25.9946124 C169.887467,26.354607 172.587426,24.2846379 172.587426,18.7947197 C172.587426,13.4847989 168.537487,11.2348325 160.617605,12.134819 Z M160.617605,48.3142795 C170.247461,49.6642594 174.027405,47.6842889 174.027405,41.4743815 C174.027405,35.3544728 169.347475,34.1844902 160.617605,34.8144808 L160.617605,48.3142795 Z M234.416504,58.1241332 L235.496488,47.144297 L212.276834,47.144297 L212.276834,2.32496533 L198.957033,2.32496533 L198.957033,58.1241332 L234.416504,58.1241332 Z M274.645904,58.5741265 C273.745918,53.8941963 272.755933,49.1242674 271.765947,44.2643399 L257.636158,44.2643399 C256.646173,48.9442701 255.656188,53.5342017 254.756201,58.1241332 L241.526398,58.1241332 C245.936333,39.5844097 250.436265,20.8646889 255.656188,2.32496533 L273.925915,2.32496533 C279.145837,20.8646889 283.64577,39.1344164 288.055704,57.6741399 L274.645904,58.5741265 Z M264.296059,12.944807 C262.676083,20.0547009 261.146106,27.4345909 259.616129,34.7244822 L269.785977,34.7244822 C268.256,27.4345909 266.636024,20.0547009 265.106047,12.944807 L264.296059,12.944807 Z M313.795321,59.5641118 C326.215135,59.5641118 334.045019,51.1042379 334.045019,37.7844365 L334.045019,2.32496533 L320.815216,2.32496533 L320.815216,40.304399 C320.815216,46.1543117 318.925244,48.2242809 314.605308,48.2242809 C310.375372,48.2242809 307.76541,45.4343225 307.76541,38.7744218 L307.76541,2.32496533 L294.535608,2.32496533 L294.535608,38.9544191 C294.535608,52.0942232 301.7355,59.5641118 313.795321,59.5641118 Z" id="JOEBLAU"></path>
            </g>
        </g>
    </g>
</svg>