<?xml version="1.0" encoding="UTF-8"?>
<svg width="422px" height="74px" viewBox="0 0 422 74" version="1.1" xmlns="http://www.w3.org/2000/svg" xmlns:xlink="http://www.w3.org/1999/xlink">
    <!-- Generator: Sketch 43.2 (39069) - http://www.bohemiancoding.com/sketch -->
    <title>open-source</title>
    <desc>Created with Sketch.</desc>
    <defs></defs>
    <g id="black" stroke="none" stroke-width="1" fill="none" fill-rule="evenodd">
        <g id="Artboard" transform="translate(-1920.000000, -113.000000)" fill-rule="nonzero" fill="#222222">
            <g id="open-source" transform="translate(1920.980296, 112.000000)">
                <path d="M29.045526,33.5342667 C29.045526,38.8045049 24.7422254,43.2145505 19.363684,43.2145505 C13.8776185,43.2145505 9.6810628,38.8045049 9.6810628,33.5342667 L9.6810628,19.5499032 C9.6810628,14.279665 13.9843633,9.8680612 19.363684,9.8680612 C24.7422254,9.8680612 29.045526,14.279665 29.045526,19.5499032 L29.045526,33.5342667 Z M38.7273681,33.5342667 L38.7273681,19.5499032 C38.7273681,8.68373802 31.0892627,1.26145995 19.3636841,1.26145995 C7.63810553,1.26145995 0,8.57777234 0,19.5499032 L0,33.5342667 C0,44.5063977 7.63810537,51.8211515 19.363684,51.8211515 C31.0892626,51.8211515 38.7273681,44.5063977 38.7273681,33.5342667 Z" id="Shape"></path>
                <path d="M73.1498772,32.4574676 C73.1498772,37.729264 68.9548797,42.1408679 63.4680352,42.1408679 C58.0894937,42.1408679 53.7869724,37.7292641 53.7869724,32.4574676 L53.7869724,20.6267023 C53.7869724,15.3533475 58.0894939,10.9417437 63.4680352,10.9417437 C68.9548799,10.9417437 73.1498772,15.3533475 73.1498772,20.6267023 L73.1498772,32.4574676 Z M82.8317192,32.4574676 L82.8317192,20.6267023 C82.8317192,9.76209536 75.0868689,2.33670069 64.2214828,2.33670069 C57.8752246,2.33670069 54.8629921,5.88811186 53.4651791,5.88811186 C53.0343036,5.88811186 52.7109521,5.45645725 52.7109521,4.70378868 L52.7109521,3.41505804 C52.7109521,2.66238947 52.3883799,2.33670053 51.6357114,2.33670053 L45.18115,2.33670053 C44.4284814,2.33670053 44.1051301,2.66238947 44.1051301,3.41505804 L44.1051301,73.8729375 C44.1051301,74.6271644 44.4284814,74.951295 45.18115,74.951295 L52.7109521,74.951295 C53.4651791,74.951295 53.786972,74.6271644 53.786972,73.8729375 L53.786972,48.3788227 C53.786972,47.6245957 54.1095442,47.1960579 54.6471647,47.1960579 C55.6156606,47.1960579 58.8429412,50.7459108 65.0816752,50.7459108 C75.0868689,50.7459108 82.8317192,43.0010606 82.8317192,32.4574676 Z" id="Shape"></path>
                <path d="M114.67365,20.6267023 L97.4627854,20.6267023 C96.4942895,20.6267023 96.3859863,20.1950477 96.3859863,19.0107245 C96.3859863,14.279665 100.904335,9.8680612 106.069387,9.8680612 C111.124577,9.8680612 115.750449,14.1721409 115.750449,18.7956764 C115.750449,20.0875236 115.643705,20.6267023 114.67365,20.6267023 Z M125.430733,27.0781471 L125.430733,19.5499033 C125.430733,9.76209552 116.824911,1.26146011 106.069387,1.26146011 C95.3115247,1.26146011 86.7049235,9.76209552 86.7049235,19.5499033 L86.7049235,33.5342669 C86.7049235,44.5063979 94.3430288,51.8211517 106.069387,51.8211517 C111.7705,51.8211517 116.28807,50.3142564 119.51535,47.3035821 C122.741852,44.2913496 124.033699,41.4941652 124.033699,40.7414966 C124.033699,40.4189245 123.818651,40.2038762 123.387776,39.9888281 L116.609863,36.5464992 C116.397152,36.4389751 116.179766,36.3314511 115.965498,36.3314511 C115.319574,36.3314511 114.351078,38.0518363 111.98399,40.8505791 C110.800446,42.2468338 108.650744,43.2145505 106.069386,43.2145505 C100.582542,43.2145505 96.3859861,38.8045049 96.3859861,33.5342667 L96.3859861,29.2317452 C96.3859861,28.4790766 96.7093375,28.1549461 97.4627852,28.1549461 L124.356271,28.1549461 C125.10894,28.1549462 125.430733,27.8308157 125.430733,27.0781471 Z" id="Shape"></path>
                <path d="M167.708733,50.7459108 L160.17971,50.7459108 C159.427042,50.7459108 159.10447,50.4233386 159.10447,49.6706701 L159.10447,20.6267023 C159.10447,15.3533475 154.907914,10.9417437 149.421848,10.9417437 C144.043307,10.9417437 139.739227,15.3533475 139.739227,20.6267023 L139.739227,49.6706701 C139.739227,50.4233386 139.417434,50.7459108 138.664766,50.7459108 L131.134184,50.7459108 C130.380737,50.7459108 130.057385,50.4233386 130.057385,49.6706701 L130.057385,3.4150582 C130.057385,2.66238963 130.380737,2.33670069 131.134184,2.33670069 L137.589525,2.33670069 C138.342973,2.33670069 138.664766,2.66238963 138.664766,3.4150582 L138.664766,4.70378884 C138.664766,5.45645741 138.986559,5.88811202 139.417434,5.88811202 C140.814468,5.88811202 143.82748,2.33670085 150.174517,2.33670085 C161.040682,2.33670085 168.785532,9.76209552 168.785532,20.6267025 L168.785532,49.6706702 C168.785532,50.4233386 168.461402,50.7459108 167.708733,50.7459108 Z" id="Shape"></path>
                <path d="M195.67746,14.9248095 C195.67746,19.3348551 199.013044,21.3793709 206.435322,22.9922321 C218.806824,25.6818924 225.691482,27.2947536 225.691482,36.3314511 C225.691482,45.4741144 219.020314,51.8211517 208.586583,51.8211517 L205.250999,51.8211517 C195.247364,51.8211517 188.684499,45.7966867 188.684499,42.4618819 C188.684499,42.1408679 188.901885,41.9258198 189.439505,41.7092133 L193.633724,39.6662559 C193.849551,39.5571735 194.063041,39.5571735 194.171344,39.5571735 C194.493916,39.5571735 194.711302,39.7722216 195.033095,40.0963521 C197.8295,43.2145505 199.980761,46.1208171 205.250999,46.1208171 L208.586583,46.1208171 C214.611827,46.1208171 218.484252,42.6784882 218.484252,38.2668844 C218.484252,34.2869353 215.149447,31.9198471 207.940659,30.4145101 C195.46397,27.8308157 188.684499,26.542085 188.684499,17.0737328 C188.684499,8.25364162 195.247364,2.12165258 205.250999,2.12165258 L208.586583,2.12165258 C218.376728,2.12165258 225.044779,8.04015189 225.044779,11.2674325 C225.044779,11.5900047 224.722207,11.8034946 224.292111,12.0201011 L220.203079,14.0630585 C219.991147,14.1721409 219.882065,14.1721409 219.772983,14.1721409 C219.45041,14.1721409 219.238479,13.9555344 218.91279,13.6314039 C215.902116,10.4056815 213.429062,7.82510361 208.586583,7.82510361 L205.250999,7.82510361 C199.013044,7.82510377 195.67746,10.5147641 195.67746,14.9248095 Z" id="Shape"></path>
                <path d="M260.438901,34.1778528 C260.438901,40.4189243 255.380594,45.6907209 248.92915,45.6907209 C242.474588,45.6907209 237.523806,40.4189245 237.523806,34.1778528 L237.523806,19.6574272 C237.523806,13.3103899 242.365506,8.25364162 248.92915,8.25364162 C255.380594,8.25364162 260.438901,13.525438 260.438901,19.6574272 L260.438901,34.1778528 Z M267.752097,34.1778528 L267.752097,19.6574272 C267.752097,9.22135831 260.331377,2.12165258 248.92915,2.12165258 C237.523806,2.12165258 230.316576,9.00631019 230.316576,19.6574272 L230.316576,34.1778528 C230.316576,44.8305283 237.523806,51.8211515 248.92915,51.8211515 C260.331377,51.8211517 267.752097,44.7214458 267.752097,34.1778528 Z" id="Shape"></path>
                <path d="M309.708304,50.7459108 L305.728354,50.7459108 C304.975686,50.7459108 304.651555,50.4233386 304.651555,49.6706701 L304.651555,45.044018 C304.651555,44.2913494 304.223017,43.8628114 303.791363,43.8628114 C302.823646,43.8628114 301.749964,45.5831967 299.812972,47.5201884 C297.660932,49.5615876 294.433651,50.7459108 290.883798,50.7459108 C281.094432,50.7459108 273.348024,43.5386809 273.348024,33.1041703 L273.348024,4.27369244 C273.348024,3.52102388 273.672154,3.1984517 274.424823,3.1984517 L279.480013,3.1984517 C280.23424,3.1984517 280.555254,3.52102388 280.555254,4.27369244 L280.555254,33.1041703 C280.555254,39.3436836 285.61356,44.61548 291.960597,44.61548 C298.628649,44.61548 303.577873,39.4512076 303.577873,33.1041703 L303.577873,4.27369244 C303.577873,3.52102388 303.898887,3.1984517 304.651555,3.1984517 L309.708304,3.1984517 C310.460972,3.1984517 310.783544,3.52102388 310.783544,4.27369244 L310.783544,49.6706701 C310.783544,50.4233386 310.460972,50.7459108 309.708304,50.7459108 Z" id="Shape"></path>
                <path d="M343.377365,10.8357779 C342.518731,10.8357779 341.119359,10.5147639 339.289892,10.5147639 C332.729365,10.5147639 327.887664,15.4608716 327.887664,21.8079087 L327.887664,49.6706699 C327.887664,50.4233385 327.566651,50.7459106 326.812424,50.7459106 L321.646593,50.7459106 C320.893924,50.7459106 320.57291,50.4233385 320.57291,49.6706699 L320.57291,4.27369228 C320.57291,3.52102372 320.893924,3.19845154 321.646593,3.19845154 L325.629659,3.19845154 C326.382327,3.19845154 326.7049,3.52102372 326.7049,4.27369228 L326.7049,9.65301292 C326.7049,10.4056815 327.134996,10.8357777 327.566651,10.8357777 C328.746299,10.8357777 330.469801,8.1461174 334.342226,5.02636085 C335.524991,4.05864417 337.782997,3.19845154 339.289892,3.19845154 L343.271399,3.19845154 C344.025626,3.19845154 344.34664,3.52102372 344.34664,4.27369228 L344.34664,9.7620952 C344.34664,10.6207298 344.130034,10.8357779 343.377365,10.8357779 Z" id="Shape"></path>
                <path d="M379.415073,42.3559161 C379.415073,45.7966866 372.852987,51.8211515 362.742607,51.8211515 C351.338822,51.8211515 344.130034,44.8305281 344.130034,34.1778528 L344.130034,19.6574272 C344.130034,9.00631019 351.338822,2.12165258 362.742607,2.12165258 C372.745463,2.12165258 379.524155,7.82510377 379.524155,11.3733983 C379.524155,11.6944123 379.200025,12.0201011 378.771487,12.2351493 L374.252359,14.493155 C374.037311,14.6006791 373.929786,14.6006791 373.820704,14.6006791 C373.49969,14.6006791 373.284642,14.493155 372.96207,14.1721411 C369.734789,11.1583502 367.582749,8.25364178 362.742607,8.25364178 C356.178963,8.25364178 351.338822,13.3103901 351.338822,19.6574274 L351.338822,34.177853 C351.338822,40.4189245 356.288046,45.690721 362.742607,45.690721 C365.324744,45.690721 367.905321,44.6154803 369.842313,42.7844542 C372.100319,40.6339726 373.068036,39.1286356 373.71318,39.1286356 C373.820704,39.1286356 374.037311,39.1286356 374.252359,39.2361597 L378.771487,41.4941654 C379.309107,41.7092133 379.415073,41.9258198 379.415073,42.3559161 Z" id="Shape"></path>
                <path d="M413.408265,21.1627644 C413.408265,21.915433 413.087251,22.2395635 412.333024,22.2395635 L391.573085,22.2395635 C390.818858,22.2395635 390.497845,21.915433 390.497845,21.1627644 L390.497845,19.6574272 C390.497845,13.3103899 395.337986,8.25364162 401.898514,8.25364162 C408.354633,8.25364162 413.408265,13.525438 413.408265,19.6574272 L413.408265,21.1627644 L413.408265,21.1627644 Z M420.724577,26.2195127 L420.724577,19.6574272 C420.724577,10.4056815 412.333024,2.12165258 401.898513,2.12165258 C396.413227,2.12165258 391.895657,4.05864433 388.344246,7.82510377 C385.118524,11.2674327 383.289056,15.6774781 383.289056,19.6574274 L383.289056,34.177853 C383.289056,44.8305284 390.497844,51.8211517 401.898513,51.8211517 C412.01201,51.8211517 418.574095,45.7966867 418.574095,42.3559162 C418.574095,41.9258198 418.466571,41.7092135 417.928951,41.4941652 L413.408265,39.2361595 C413.194775,39.1286354 412.981285,39.1286354 412.872203,39.1286354 C412.227058,39.1286354 411.259341,40.6339726 408.998219,42.7844541 C407.064344,44.61548 404.480649,45.6907209 401.898513,45.6907209 C395.44551,45.6907209 390.497844,40.4189245 390.497844,34.1778528 L390.497844,28.3715526 C390.497844,27.618884 390.818858,27.2947534 391.573085,27.2947534 L419.649336,27.2947534 C420.402005,27.2947536 420.724577,26.9721813 420.724577,26.2195127 Z" id="Shape"></path>
            </g>
        </g>
    </g>
</svg>