<?xml version="1.0" encoding="UTF-8"?>
<svg width="396px" height="77px" viewBox="0 0 396 77" version="1.1" xmlns="http://www.w3.org/2000/svg" xmlns:xlink="http://www.w3.org/1999/xlink">
    <!-- Generator: Sketch 43.2 (39069) - http://www.bohemiancoding.com/sketch -->
    <title>raytheon</title>
    <desc>Created with Sketch.</desc>
    <defs></defs>
    <g id="black" stroke="none" stroke-width="1" fill="none" fill-rule="evenodd">
        <g id="Artboard" transform="translate(-826.000000, -100.000000)" fill-rule="nonzero" fill="#222222">
            <g id="raytheon" transform="translate(826.733542, 100.000000)">
                <path d="M50.6241385,24.1721045 C49.6360348,25.68666 47.8137113,27.209316 45.2260129,28.7360095 C47.129327,29.4123035 49.0285925,30.862055 50.8549662,33.1419845 C52.1467903,34.733482 52.7501815,37.167304 52.7501815,40.512275 L52.7501815,59.2133545 L28.9587404,59.2133545 L28.9587404,37.167304 L23.7144996,37.167304 L23.7144996,59.2133545 L0,59.2133545 L0,0 L37.4750644,0 C42.2617,0 45.9873384,1.51861 48.801815,4.636801 C51.5353003,7.6740125 52.9769598,11.3996475 52.8311737,15.8096685 C52.6732395,19.3814195 51.9159634,22.191851 50.6241385,24.1721045 L50.6241385,24.1721045 Z M29.0356832,11.322697 L23.8683845,11.322697 L23.8683845,24.245009 L29.0356832,24.245009 L29.0356832,11.322697 Z M83.2356244,59.2133545 L83.1546279,53.20779 C80.0445306,57.690707 75.4765737,59.88964 69.475056,59.88964 C59.5170722,59.88964 54.5765509,54.495574 54.7304358,43.7074165 C54.8073778,35.1910965 60.4322834,30.781067 71.5282064,30.550241 L82.3244584,30.327507 L82.3244584,21.6613575 L77.6107162,21.6613575 L77.6107162,27.209316 L56.4798667,27.209316 L56.4798667,25.1561665 C56.4798667,21.4345775 58.3791322,18.320424 62.254606,15.728672 C66.7415707,12.6955235 72.8929238,11.095934 80.7977564,11.0189835 C87.564654,10.9420585 93.039725,12.4646975 97.295862,15.501892 C101.859767,18.773984 104.216639,23.3338345 104.216639,29.258411 L104.216639,59.2133545 L83.2356202,59.2133545 L83.2356244,59.2133545 Z M82.3244627,37.39813 L77.3798928,37.39813 L77.3798928,47.6598315 L82.3244627,47.6598315 L82.3244627,37.39813 Z M176.575023,26.678814 L176.575023,59.2133545 L153.998462,59.2133545 L153.998462,24.471772 L134.31332,76.011131 L112.271307,76.011131 L118.580594,58.9825285 L101.325219,13.602635 L123.059465,13.602635 L129.599577,37.5479595 L136.36647,13.602635 L154.075404,13.602635 L154.075404,5.68434189e-14 L176.575014,5.68434189e-14 L176.575014,13.602635 L184.180177,13.602635 L184.180177,26.678814 L176.575014,26.678814 L176.575023,26.678814 Z M213.669422,59.2133545 L213.669422,26.678814 L208.959734,26.678814 L208.959734,59.2133545 L186.306222,59.2133545 L186.306222,1.13686838e-13 L208.959734,1.13686838e-13 L208.959734,16.6438925 C210.247501,15.3480165 212.223708,14.214125 214.884302,13.2989045 C217.544887,12.383701 220.209535,11.934187 222.866082,11.934187 C226.595763,11.934187 229.782804,13.149075 232.443389,15.501892 C235.103991,17.93976 236.472755,20.904067 236.472755,24.471772 L236.472755,59.2133545 L213.669422,59.2133545 L213.669422,59.2133545 Z M289.376831,38.1554035 L261.329237,38.1554035 L261.329237,49.024549 L266.119922,49.024549 L266.119922,42.407486 L289.154097,42.407486 C289.073177,43.17286 288.923271,44.01113 288.692437,44.9951835 C287.323673,50.0166945 284.812918,53.7382835 281.245204,56.091109 C277.215856,58.7557485 271.360121,59.9746825 263.686125,59.88964 C255.704345,59.82079 249.84861,58.5249225 246.127021,55.945317 C240.65195,52.219682 237.918469,45.379902 237.918469,35.4178595 C237.918469,25.2331085 240.506166,18.320424 245.746365,14.7446185 C249.39505,12.2338715 255.400623,11.0189835 263.763059,11.0189835 C273.644105,11.0189835 280.560835,13.375855 284.586138,18.16654 C287.704337,21.811187 289.376831,27.58998 289.530707,35.4178595 C289.530707,36.2561295 289.453782,37.167304 289.376831,38.1554035 L289.376831,38.1554035 Z M266.042988,21.6613575 L261.329237,21.6613575 L261.329237,30.481391 L266.042988,30.481391 L266.042988,21.6613575 Z M334.756725,56.091109 C331.108023,58.678815 325.102459,59.88964 316.740014,59.88964 C308.304682,59.88964 302.303172,58.6018645 298.727375,56.091109 C293.63296,52.5234125 291.049308,45.68767 291.049308,35.4178595 C291.049308,25.3140965 293.63296,18.4743165 298.727375,14.8175145 C302.303172,12.310805 308.304682,11.0189835 316.740014,11.0189835 C325.175355,11.0189835 331.184974,12.383701 334.756725,14.898511 C339.928074,18.5431495 342.511725,25.3140965 342.511725,35.4178595 C342.511725,45.533786 339.928074,52.442416 334.756725,56.091109 L334.756725,56.091109 Z M319.096886,21.6613575 L314.383151,21.6613575 L314.383151,49.024549 L319.096886,49.024549 L319.096886,21.6613575 Z M371.778228,59.2133545 L371.778228,26.678814 L367.133327,26.678814 L367.133327,59.2133545 L344.791646,59.2133545 L344.791646,12.6185815 L366.303157,12.6185815 L366.380082,16.8747185 C369.340343,13.679577 373.900202,12.0070915 380.055605,11.934187 C383.785286,11.853182 387.126219,13.149075 390.171514,15.728672 C393.36261,18.4743165 394.962208,21.738291 394.962208,25.536822 L394.962208,59.2133545 L371.778211,59.2133545 L371.778228,59.2133545 Z" id="path28"></path>
            </g>
        </g>
    </g>
</svg>