<?xml version="1.0" encoding="UTF-8"?>
<svg width="193px" height="60px" viewBox="0 0 193 60" version="1.1" xmlns="http://www.w3.org/2000/svg" xmlns:xlink="http://www.w3.org/1999/xlink">
    <!-- Generator: Sketch 43.2 (39069) - http://www.bohemiancoding.com/sketch -->
    <title>saic</title>
    <desc>Created with Sketch.</desc>
    <defs></defs>
    <g id="black" stroke="none" stroke-width="1" fill="none" fill-rule="evenodd">
        <g id="Artboard" transform="translate(-504.000000, -100.000000)" fill-rule="nonzero" fill="#222222">
            <g id="saic" transform="translate(504.000000, 100.000000)">
                <path d="M22.6458018,15.0511421 C23.5141369,10.9363681 22.9425193,9.55095908 28.935777,9.56404956 C36.8795162,9.57932178 54.1742209,9.58368527 54.1742209,9.58368527 L56.6134136,0.0145449765 L25.992601,0.0189084695 C21.9978231,0.0210902161 13.2752004,-1.12869021 10.8992784,14.1522625 C9.87603931,20.7280466 9.30223997,23.9810307 9.14951771,26.0885978 C8.76553032,31.4535125 13.7290037,33.0701867 17.9026848,33.0701867 C23.5272274,33.0701867 36.046089,33.0832772 36.046089,33.0832772 C38.7819991,33.0832772 39.9012351,33.0701867 39.5259747,35.0490308 C38.8649055,38.5376435 37.457679,45.2792403 36.9973305,47.3060828 C36.2708089,50.5001598 32.4003905,50.0267208 28.9401405,50.059447 L2.64864029,50.059447 L0.362169925,59.633678 L33.2847251,59.633678 C40.2794045,59.633678 46.6501044,57.249029 48.3955016,50.6187013 C50.173625,43.8640141 51.0877768,39.2648924 52.1131977,33.8890689 C53.3393393,27.4529166 49.244201,22.7185267 41.6626318,22.7185267 L25.6660662,22.7185267 C23.9533952,22.7185267 21.1498509,23.119968 21.6931058,20.3164237 C21.9287344,19.1055544 22.1141829,17.645966 22.6443473,15.0518693" id="Shape"></path>
                <path d="M93.3896604,59.6344053 L105.616168,59.6344053 L98.0891424,0.0727248845 L84.3855924,0.0727248845 L49.8158186,59.6344053 L62.9499327,59.6344053 C62.9499327,59.6344053 69.5628065,48.3569574 69.84207,47.8573375 L88.7905387,47.8573375 L90.8610162,38.995083 L74.6833656,38.995083 C74.6855473,38.9929013 74.6637299,38.9776291 74.6637299,38.9776291 C75.7742389,37.1427802 88.2145576,16.8285383 88.4829124,16.3463723 C88.5461831,16.7696311 93.3896604,59.6358598 93.3896604,59.6358598" id="Shape"></path>
                <polygon id="Shape" points="138.031831 0.0158700243 124.313009 0.0158700243 111.106897 59.6357303 125.067893 59.6357303 138.03474 0.0158700243"></polygon>
                <path d="M158.303892,14.8424217 C158.707515,12.9639379 159.213681,9.57786728 163.812802,9.57786728 C166.195269,9.57786728 190.299205,9.57568554 190.299205,9.57568554 L192.71658,0.0239992119 C192.71658,0.0239992119 169.212625,0.032726198 160.378733,0.032726198 C148.073683,0.032726198 147.288254,11.8708829 146.502825,15.7980267 C145.715215,19.7251704 140.197578,44.2480015 139.970676,45.3541469 C138.537269,52.3313724 142.239693,59.6773129 152.908433,59.6773129 L182.383829,59.6773129 L184.620119,50.0579925 L157.494464,50.0579925 C152.282272,50.0579925 152.149185,46.9686394 152.908433,43.0873123 L155.587618,29.0085019 L155.598527,29.0085019 C155.598527,29.0085019 157.106113,20.4080571 158.303892,14.8424217" id="Shape"></path>
            </g>
        </g>
    </g>
</svg>