<?xml version="1.0" encoding="UTF-8"?>
<svg width="287px" height="60px" viewBox="0 0 287 60" version="1.1" xmlns="http://www.w3.org/2000/svg" xmlns:xlink="http://www.w3.org/1999/xlink">
    <!-- Generator: Sketch 43.2 (39069) - http://www.bohemiancoding.com/sketch -->
    <title>uber</title>
    <desc>Created with Sketch.</desc>
    <defs></defs>
    <g id="black" stroke="none" stroke-width="1" fill="none" fill-rule="evenodd">
        <g id="Artboard" transform="translate(-53.000000, -100.000000)" fill-rule="nonzero" fill="#222222">
            <g id="uber" transform="translate(53.000000, 100.000000)">
                <path d="M45.1481359,1.44690431 L45.1481359,34.478815 C45.1481359,45.5091242 40.2654486,50.0898403 28.8131665,50.0898403 C17.3599009,50.0898403 12.4772136,45.5091242 12.4772136,34.478815 L12.4772136,0 L1.44690431,0 C0.482957183,0 0,0.482957183 0,1.44690431 L0,35.0207893 C0,53.4666061 11.7542532,59.9161993 28.8131665,59.9161993 C45.8710962,59.9161993 57.6253495,53.4666061 57.6253495,35.0207893 L57.6253495,0 L46.5940566,0 C45.6301094,0 45.1481359,0.482957183 45.1481359,1.44690431" id="Fill-1"></path>
                <path d="M205.054177,9.58438858 C205.958124,9.58438858 206.380096,9.28340101 206.681084,8.61945784 L209.876864,0.722960346 C210.05785,0.241970401 209.876864,0 209.393907,0 L164.969715,0 C160.809988,0 159.244065,1.26591832 159.244065,4.09874253 L159.244065,55.3945004 C159.244065,57.8063355 160.448016,58.8912678 163.643796,58.8912678 L205.054177,58.8912678 C205.958124,58.8912678 206.380096,58.5892966 206.681084,57.9273207 L209.876864,50.0298395 C210.05785,49.547866 209.876864,49.3068792 209.393907,49.3068792 L171.480292,49.3068792 L171.480292,38.8785451 C171.480292,35.2617761 173.469171,33.6338858 178.832848,33.6338858 L195.289786,33.6338858 C196.193733,33.6338858 196.614722,33.3338818 196.916693,32.6709223 L199.991488,25.0754124 C200.17149,24.5924552 199.991488,24.352452 199.50853,24.352452 L171.480292,24.352452 L171.480292,9.58438858 L205.054177,9.58438858" id="Fill-2"></path>
                <path d="M115.276273,49.4278644 L93.5097567,49.4278644 L93.5097567,38.6375583 C93.5097567,35.0207893 95.4986354,33.3938826 100.86428,33.3938826 L115.276273,33.3938826 C122.20784,33.3938826 124.136718,36.0457209 124.136718,41.4713661 C124.136718,46.8960278 122.20784,49.4278644 115.276273,49.4278644 Z M93.5097567,9.46340338 L112.985423,9.46340338 C119.495017,9.46340338 121.303893,11.9155668 121.303893,16.9979289 C121.303893,22.0812746 119.495017,24.533438 112.985423,24.533438 L93.5097567,24.533438 L93.5097567,9.46340338 Z M126.84954,27.8482358 C131.671243,25.3163992 133.660122,20.5546971 133.660122,14.9490494 C133.660122,1.92887787 123.051785,0 112.081477,0 L87.0060645,0 C82.8463375,0 81.2804153,1.26591832 81.2804153,4.09874253 L81.2804153,55.3945004 C81.2804153,57.8063355 82.4853492,58.8912678 85.6801454,58.8912678 L116.542191,58.8912678 C128.175459,58.8912678 136.492946,54.3705525 136.492946,42.6162992 C136.492946,35.5637473 133.479136,29.5961277 126.84954,27.8482358 L126.84954,27.8482358 Z" id="Fill-3"></path>
                <path d="M263.852001,27.3052778 L243.357305,27.3052778 L243.357305,9.464387 L263.852001,9.464387 C271.506528,9.464387 273.194419,12.4172128 273.194419,18.3848324 C273.194419,24.4124528 271.506528,27.3052778 263.852001,27.3052778 Z M286.877551,57.8663362 L273.677377,35.2017753 C280.246971,33.5148678 285.551631,29.1751385 285.551631,18.1438456 C285.551631,3.85873937 276.690203,0 262.043125,0 L236.847711,0 C232.688968,0 231.121078,1.26591832 231.121078,4.09874253 L231.121078,57.4443635 C231.121078,58.4083106 231.604035,58.8912678 232.567982,58.8912678 L243.357305,58.8912678 L243.357305,41.7123529 C243.357305,38.0955839 245.346184,36.4676936 250.711828,36.4676936 L261.561151,36.4676936 L273.495407,57.9273207 C273.857379,58.5292958 274.219351,58.8912678 275.123297,58.8912678 L286.335576,58.8912678 C287.119521,58.8912678 287.119521,58.2273246 286.877551,57.8663362 L286.877551,57.8663362 Z" id="Fill-4"></path>
            </g>
        </g>
    </g>
</svg>