<?xml version="1.0" encoding="UTF-8"?>
<svg width="491px" height="83px" viewBox="0 0 491 83" version="1.1" xmlns="http://www.w3.org/2000/svg" xmlns:xlink="http://www.w3.org/1999/xlink">
    <!-- Generator: Sketch 43.2 (39069) - http://www.bohemiancoding.com/sketch -->
    <title>virginia-tech</title>
    <desc>Created with Sketch.</desc>
    <defs></defs>
    <g id="black" stroke="none" stroke-width="1" fill="none" fill-rule="evenodd">
        <g id="Artboard" transform="translate(-2624.000000, -97.000000)" fill-rule="nonzero" fill="#222222">
            <g id="virginia-tech" transform="translate(2870.240005, 138.750001) scale(-1, 1) rotate(-180.000000) translate(-2870.240005, -138.750001) translate(2624.000000, 96.000000)">
                <path d="M458.046542,1.5171441 C454.931135,2.76223787 448.344643,4.45300041 443.810364,5.61259419 L442.737424,8.99005801 C449.144581,9.16640177 450.928325,9.70361965 450.928325,18.245647 L450.928325,21.130417 L450.928325,50.3671427 C450.928325,58.5512029 450.305628,58.9932379 445.413361,60.1528317 L444.340421,63.5302955 L464.63406,63.5302955 L465.694474,60.1528317 C459.199039,59.5276129 457.687185,58.6375365 457.687185,50.4588414 L457.687185,46.2757538 C457.687185,32.390126 461.248047,27.5893009 468.453987,27.5893009 C474.593956,27.5893009 477.442388,30.2588247 477.442388,38.0848537 L477.442388,49.6532177 C477.442388,59.1732154 476.10846,59.3512691 470.679124,60.1528317 L469.614542,63.5302955 L489.720295,63.5302955 L490.789045,60.1528317 C485.450639,59.973816 484.20127,58.1968481 484.20127,54.6378678 L484.20127,32.7498673 C484.20127,26.7007422 479.934393,21.7158783 472.54933,21.7158783 C464.635236,21.7158783 461.250718,25.6334884 457.87069,30.0822672 L457.687078,30.0822672 L457.687078,21.1314858 L457.687078,17.3575157 C457.687078,8.63395051 457.869835,3.20961663 458.046114,1.51821285 L458.046542,1.5171441 Z M68.8932831,4.91534167 L67.7994816,8.38877925 C71.9915467,8.38877925 72.5421667,10.2069795 75.5479192,15.7697807 C79.3768231,22.7886896 89.4925421,51.044944 94.0505472,64.3487442 L102.801045,63.2591322 C108.63642,43.3857255 115.836589,23.9697438 124.130089,4.91606842 L104.257965,4.91606842 L103.164163,8.389506 C110.271351,8.389506 113.00842,10.2057184 113.00842,14.5848361 C113.00842,19.6853388 101.342586,49.2230244 99.3359008,56.6957246 L99.1563935,56.6957246 C91.3288683,37.3705866 84.5829182,17.1412862 84.5829182,13.6763986 C84.5829182,10.395336 86.4998282,8.39100225 94.0637997,8.39100225 L95.1576012,4.91756467 L68.9069631,4.91756467 L68.8932831,4.91534167 Z M331.057664,5.08233386 L331.057664,21.1261955 L335.065477,19.6650218 C335.973914,10.3694616 337.346189,9.09016783 351.472499,9.09016783 C351.654187,12.2857304 351.839872,15.836118 351.839872,21.6689281 L351.839872,44.0998536 C351.839872,57.4032264 350.378014,59.7698665 341.812004,59.951554 L340.718202,63.4166553 L368.61044,63.4166553 L369.704242,59.951554 C360.224429,59.7698665 358.762165,57.4030127 358.762165,44.0998536 L358.762165,21.6689281 C358.762165,15.4755217 358.945135,12.2857304 359.129559,9.09016783 C372.531684,9.09016783 374.622801,10.3718342 375.536582,21.1262168 L379.552731,19.6650432 L379.552731,5.08237661 L331.05713,5.08237661 L331.057664,5.08233386 Z M131.898235,7.29101266 C130.439391,7.29101266 125.794603,8.38331794 125.794603,10.117429 C125.794603,12.4847103 125.97411,13.3110678 125.97411,14.6762891 C125.97411,15.7717579 125.882775,16.6823756 125.794603,17.5027054 C133.361353,14.5850178 133.447067,14.7652091 133.447067,10.4848652 C133.447067,8.11224018 132.993682,7.29122641 131.898213,7.29122641 L131.898235,7.29101266 Z M217.004936,7.29101266 C215.546093,7.29101266 210.901305,8.38331794 210.901305,10.117429 C210.901305,12.4847103 211.080812,13.3110678 211.080812,14.6762891 C211.080812,15.7717579 210.992149,16.6823756 210.901305,17.5027054 C218.468055,14.5850178 218.55783,14.7652091 218.55783,10.4848652 C218.55783,8.11224018 218.100277,7.29122641 217.004808,7.29122641 L217.004936,7.29101266 Z M286.36895,7.29101266 C284.910107,7.29101266 280.252922,8.38331794 280.252922,10.117429 C280.252922,12.4847103 280.440808,13.3110678 280.440808,14.6762891 C280.440808,15.7717579 280.349109,16.6823756 280.252922,17.5027054 C287.825015,14.5850178 287.913722,14.7652091 287.913722,10.4848652 C287.913722,8.11224018 287.461833,7.29122641 286.369036,7.29122641 L286.36895,7.29101266 Z M153.801197,20.4165455 C150.065916,21.6910299 146.052332,22.7848955 142.132585,23.5142105 L141.042951,26.9793119 C146.691295,26.9793119 147.785268,27.9806024 147.785268,32.1727957 L147.785268,55.3261962 C147.785268,58.6046938 146.778804,59.6127388 142.49581,59.7890826 L141.406177,63.2582452 L162.367785,63.2582452 L163.461586,59.7890826 C155.440617,59.8852701 154.711089,58.0653812 154.711089,49.4940274 C154.711089,38.2828396 155.806557,33.450807 158.451714,30.3567757 C160.180417,28.6200569 162.094014,28.2590118 167.381548,28.0773456 L170.116051,20.4165455 C161.638299,20.4165455 155.897615,25.7038656 153.984552,32.6319307 L153.800855,32.6319307 L153.800855,20.4165455 L153.801197,20.4165455 Z M183.563748,20.4165455 C173.448029,20.4165455 167.887323,27.5297181 167.887323,38.4683746 C167.887323,44.3918147 169.987075,48.1317986 175.093049,50.7716111 C170.350364,53.7829212 168.250484,55.5125862 168.250484,58.2485863 C168.250484,59.9772895 169.530312,61.5228089 170.989049,61.9849364 C166.887614,64.8064364 165.152605,67.9962278 165.152605,72.8269779 C165.152605,81.1230431 173.810549,84.0362419 180.645206,84.0362419 C190.675425,84.0362419 203.982431,78.8455368 203.982431,67.0865077 C203.982431,60.8022576 199.79058,57.7892375 192.768892,57.7892375 C188.945332,57.7892375 185.026867,58.1524415 181.743239,58.1524415 C177.911771,58.1524415 175.906795,57.5135214 175.906795,55.8730115 C175.906795,53.7809333 178.000712,51.9528364 179.192347,51.9528364 C192.768037,51.9528364 198.329598,42.84046 198.329598,33.817431 C198.329598,31.8108528 197.509504,28.8028559 195.962531,26.2485433 L202.521236,26.6159368 L204.349803,21.3264792 C199.700741,21.5108386 196.961321,21.6020244 193.044352,22.6039775 C190.855979,21.05429 187.304095,20.41646 183.56347,20.41646 L183.563748,20.4165455 Z M239.089587,20.4165455 C234.993709,21.9689049 231.342859,23.0587093 227.241424,23.8816468 L226.147623,27.3467481 C231.889375,27.5257637 232.710389,28.1641709 232.710389,37.4622533 L232.710389,49.7695511 C232.710389,58.153895 232.074141,58.6055488 227.424993,59.7890826 L226.331191,63.2625202 L246.933913,63.2625202 L248.023546,59.7890826 C241.18889,59.1558482 239.636424,58.2442258 239.636424,49.8571886 L239.636424,45.5738523 C239.636424,31.3541332 243.283854,26.4323256 250.666351,26.4323256 C256.955945,26.4323256 259.871709,29.1657607 259.871709,37.1865158 L259.871709,49.0387398 C259.871709,58.7910838 258.50839,58.9738401 253.308943,59.7888688 L252.219309,63.2623064 L271.723997,63.2623064 L272.813631,59.7888688 C268.076503,59.6125251 266.801912,57.788981 266.801912,54.1445862 L266.801912,31.7222107 C266.801912,25.5234606 262.426022,20.4167592 254.86205,20.4167592 C246.747672,20.4167592 243.286419,24.6126718 239.273262,29.8976407 L239.089651,29.8976407 L239.089651,20.4167592 L239.089587,20.4165455 Z M312.549051,20.4165455 C305.166553,20.4165455 302.25421,21.3261586 299.886928,22.1490961 L297.691074,28.0772388 C301.888697,27.1607856 305.989918,26.0691643 310.182197,26.0691643 C316.471791,26.0691643 319.020332,28.2571094 319.020332,31.538172 L319.020332,36.0010583 C310.817676,41.1977484 294.960632,43.5710147 294.960632,54.4160487 C294.960632,60.8873301 300.337727,64.3479427 306.082258,64.3479427 C312.641819,64.3479427 315.833747,62.3463663 319.387341,57.05864 L319.570952,57.05864 L319.570952,63.2582452 L330.508968,63.2582452 L331.965973,59.7931438 C327.044379,59.6141282 325.954254,57.9695998 325.954254,55.417895 L325.954254,31.1743694 C325.954254,23.5139968 322.667421,20.4159042 312.548923,20.4159042 L312.549051,20.4165455 Z M133.266235,20.4208205 C129.258422,21.9678361 124.884669,22.966583 120.507924,23.5144243 L119.414123,26.9795256 C124.154029,27.163885 126.156439,28.4380274 126.156439,32.4485332 L126.156439,54.5075337 C126.156439,58.3362238 124.703281,59.6112426 120.687432,59.7929301 L119.597798,63.2580314 L138.918875,63.2580314 L140.012676,59.7929301 C133.816491,59.6112426 133.086749,58.3345779 133.086749,51.9568549 L133.086749,25.8857668 C133.086749,23.8791887 133.266256,21.7890342 133.266256,20.4210342 L133.266235,20.4208205 Z M218.377211,20.4208205 C214.369399,21.9678361 209.995432,22.966583 205.618901,23.5144243 L204.520931,26.9795256 C209.260838,27.163885 211.267309,28.4380274 211.267309,32.4485332 L211.267309,54.5075337 C211.267309,58.3362238 209.811479,59.6112426 205.798302,59.7929301 L204.7045,63.2580314 L224.025577,63.2580314 L225.123568,59.7929301 C218.924818,59.6112426 218.193365,58.3345779 218.193365,51.9568549 L218.193365,25.8857668 C218.193365,23.8791887 218.376976,21.7890342 218.376976,20.4210342 L218.377211,20.4208205 Z M287.73695,20.4208205 C283.726573,21.9678361 279.352607,22.966583 274.97864,23.5144243 L273.880671,26.9795256 C278.620577,27.163885 280.627048,28.4380274 280.627048,32.4485332 L280.627048,54.5075337 C280.627048,58.3362238 279.16705,59.6112426 275.153979,59.7929301 L274.064346,63.2580314 L293.389484,63.2580314 L294.479096,59.7929301 C288.282911,59.6112426 287.557229,58.3345779 287.557229,51.9568549 L287.557229,25.8857668 C287.557229,23.8791887 287.736779,21.7890342 287.736779,20.4210342 L287.73695,20.4208205 Z M392.495828,20.5794636 C381.562515,20.5794636 372.815865,29.5152825 372.815865,42.8180141 C372.815865,56.4954494 381.565508,64.5136396 393.506224,64.5136396 C397.60488,64.5136396 401.798869,63.6870255 405.809461,62.6850724 L407.62967,57.0365148 C403.712701,57.7632648 399.795732,58.8567243 395.87342,58.8567243 C384.846485,58.8567243 380.284632,51.9342166 380.284632,40.6296201 L409.09172,39.8990226 C409.09172,26.2297098 401.976624,20.5779459 392.496811,20.5779459 L392.495828,20.5794636 Z M434.097991,20.5794636 C421.521368,20.5794636 411.850891,28.60086 411.850891,43.0018391 C411.850891,57.0398706 419.69573,64.5093646 433.730341,64.5093646 C435.830435,64.5093646 439.198494,64.149153 442.4849,63.4197525 L444.300942,57.5833086 C441.658564,58.131043 438.198806,58.8608069 434.824121,58.8608069 C424.983499,58.8608069 419.331521,53.5739143 419.331521,41.176414 C419.331521,35.1593514 421.246422,28.59915 423.88632,26.86521 C424.981789,26.1357881 427.168879,25.6837496 429.9021,25.6837496 C434.735415,25.6837496 438.656231,26.8675612 442.484922,28.0591534 L441.570627,21.671662 C439.473205,21.1239276 437.46962,20.5778604 434.097713,20.5778604 L434.097991,20.5794636 Z M391.046603,24.5872762 C397.055543,24.5872762 400.882523,28.96509 400.882523,32.7031501 C400.882523,34.9795876 399.974406,35.7110402 395.413515,35.8927277 L380.467688,36.6233252 C382.292578,26.961825 385.021631,24.5872762 391.046603,24.5872762 L391.046603,24.5872762 Z M181.287311,24.9755317 C189.767842,24.9755317 191.407091,27.3443092 191.407091,35.7339969 C191.407091,44.1183408 189.949423,47.0351734 184.389251,47.0351734 C177.915191,47.0351734 174.26947,44.1164171 174.26947,36.4562582 C174.26947,26.431383 175.542779,24.9755317 181.287311,24.9755317 L181.287311,24.9755317 Z M319.021401,40.1092458 L319.021401,49.2229047 C319.021401,54.1444986 315.745469,59.2467112 308.630372,59.2467112 C305.167622,59.2467112 302.435042,56.5119936 302.435042,52.867556 C302.435042,46.6688059 309.910521,44.4804334 319.021615,40.1092458 L319.021401,40.1092458 Z M174.017673,63.2583713 C175.839892,63.8034338 180.217278,63.805272 189.969622,63.805272 C195.802218,63.805272 198.903731,66.3531721 198.903731,69.8212659 C198.903731,75.2879223 191.245282,78.0205024 182.217123,78.0205024 C175.02187,78.0205024 171.558907,74.0120485 171.558907,70.4556759 C171.558907,66.9020821 172.834225,64.8962521 174.017887,63.2582858 L174.017673,63.2583713 Z" id="Shape" transform="translate(279.294263, 42.776693) scale(-1, 1) rotate(-180.000000) translate(-279.294263, -42.776693) "></path>
                <path d="M0.134081317,6.94062724 L0.134081317,49.2823657 L6.94736272,49.2823657 L6.94736272,8.81521478 L15.1758829,8.81521478 L15.1758829,49.2823657 L43.5234085,49.2823657 L43.5234085,8.81521478 L51.7562037,8.81521478 L51.7562037,49.2823657 L59.2374539,49.2823657 L59.2374539,6.94062724 L0.135577567,6.94062724 L0.134081317,6.94062724 Z M16.5911217,10.2637986 L20.9997155,10.2637986 L20.9997155,48.4288619 L16.5911217,48.4288619 L16.5911217,10.2637986 L16.5911217,10.2637986 Z M37.7908472,10.2637986 L42.195166,10.2637986 L42.195166,48.4288619 L37.7908472,48.4288619 L37.7908472,10.2637986 L37.7908472,10.2637986 Z M22.2439543,11.887807 L24.5734019,11.887807 L24.5734019,45.7073327 L22.2439543,45.7073327 L22.2439543,11.887807 L22.2439543,11.887807 Z M34.3383571,11.887807 L36.6637434,11.887807 L36.6637434,45.7073327 L34.3383571,45.7073327 L34.3383571,11.887807 L34.3383571,11.887807 Z M32.2217404,13.4157775 L33.2988481,13.4157775 L33.2988481,44.3389907 L32.2217404,44.3389907 L32.2217404,13.4157775 L32.2217404,13.4157775 Z M25.5670615,13.4992747 L26.6483373,13.4992747 L26.6483373,44.4267629 L25.5670615,44.4267629 L25.5670615,13.4992747 Z M28.2306003,41.6159503 L30.5559866,41.6159503 L30.5559866,43.7450927 L28.2306003,43.7450927 L28.2306003,41.6159503 Z M0.171637193,51.4475955 L0.171637193,52.8503299 L0.171637193,63.0160664 C0.171637193,63.0160664 -0.319154193,66.8327865 2.02942398,68.5267553 C4.24173653,70.1245366 29.6908121,80.9802581 29.6908121,80.9802581 C29.6908121,80.9802581 55.3215752,69.9734153 57.3864002,68.1886028 C59.2406815,66.5774621 59.2400189,63.0160664 59.2400189,63.0160664 L59.2400189,52.8503299 L59.2400189,51.4475955 L0.170205068,51.4475955 L0.171637193,51.4475955 Z M22.6111127,55.1965569 L22.6237239,55.1965569 C25.4345365,55.1965569 26.510554,56.7591121 26.510554,58.0896632 C26.510554,59.0435226 25.9628196,59.9604673 24.9742259,60.4734032 L24.9742259,60.5068123 C25.9307571,60.8648436 26.9322187,61.7478876 26.9322187,63.2120324 C26.9322187,65.253345 25.228225,66.6311775 22.4736073,66.6311775 C19.4276697,66.6311775 18.1819347,64.9655947 18.1819347,63.5335124 C18.1819347,62.2082624 18.9170424,61.3385136 20.0606049,60.8282924 L20.0606049,60.7990727 C19.053308,60.2353071 18.5242767,59.3490782 18.5242767,58.3817739 C18.5242767,56.455352 20.2948963,55.1964714 22.6113906,55.1964714 L22.6111127,55.1965569 Z M49.6761383,55.1965569 C52.2437034,55.1965569 53.7758634,56.5899504 53.7758634,58.7702432 C53.7758634,60.5416964 52.5160636,61.9696533 51.2042371,63.0409683 L50.1146251,63.8926338 L50.1146251,63.9260429 L53.9638351,63.9260429 L53.9638351,66.4476517 L45.772935,66.4476517 L45.772935,64.5940331 L47.3092631,63.2455698 C49.5510732,61.3084604 50.6929257,60.1496147 50.7117357,59.0248622 C50.7117357,58.2286434 50.1806952,57.6471793 49.0585077,57.6471793 C48.1393826,57.6471793 47.3100967,58.1054165 46.6955014,58.5489478 L45.8605511,56.353094 C46.7128792,55.7225315 48.1079186,55.1966637 49.6764162,55.1966637 L49.6761383,55.1965569 Z M8.44589988,55.3844217 L10.9508362,55.3844217 L10.9508362,66.4476945 L7.98676487,66.4476945 L7.98676487,58.0896418 L7.95336643,58.0896418 L5.77311638,59.0728918 L5.28063637,56.7772168 L8.44499144,55.3835667 L8.44589988,55.3844217 Z M32.1593254,55.3844217 L40.3294918,55.3844217 L40.3294918,57.288122 L35.883278,66.4477372 L32.6186742,66.4477372 L37.0772855,57.935357 L37.0772855,57.9019479 L32.1593254,57.9019479 L32.1593254,55.3846141 L32.1593254,55.3844217 Z M22.5072302,57.1211405 C21.7056677,57.1211405 21.3090545,57.6640228 21.3090545,58.3026009 C21.3090545,58.9385072 21.9659938,59.4241258 22.7702282,59.6886415 C23.2565095,59.5764227 23.7429617,59.0358703 23.7429617,58.4320266 C23.7429617,57.7747453 23.3682366,57.1211405 22.5239241,57.1211405 L22.5072516,57.1211405 L22.5072302,57.1211405 Z M22.3527531,61.7342931 C21.6233312,61.9213244 21.1879865,62.4822471 21.1879865,63.233044 C21.1879865,63.9758253 21.7525858,64.6900496 22.5781952,64.6900496 L22.5948677,64.6900496 C23.3857427,64.6900496 23.9224476,64.1483216 23.9224476,63.4376028 C23.9224476,62.555884 23.2371223,61.9587093 22.3527103,61.7342718 L22.3527531,61.7342931 Z" id="Shape" transform="translate(29.684508, 43.960443) scale(-1, 1) rotate(-180.000000) translate(-29.684508, -43.960443) "></path>
            </g>
        </g>
    </g>
</svg>